<?xml version="1.0" encoding="utf-8"?>
<!-- Generator: Adobe Illustrator 21.1.0, SVG Export Plug-In . SVG Version: 6.00 Build 0)  -->
<svg version="1.1" id="Layer_1" xmlns="http://www.w3.org/2000/svg" xmlns:xlink="http://www.w3.org/1999/xlink" x="0px" y="0px"
	 viewBox="0 0 322.2 308" style="enable-background:new 0 0 322.2 308;" xml:space="preserve">
<style type="text/css">
	.st0{fill:#00A9E5;}
	.st1{fill:#353535;}
	.st2{fill:none;}
	.st3{fill:#00BFB3;}
	.st4{fill:#019B8F;}
	.st5{fill:#FFFFFF;}
	.st6{fill:#93C90E;}
	.st7{fill:#74A300;}
	.st8{fill:#0078A0;}
	.st9{fill-rule:evenodd;clip-rule:evenodd;fill:#F04E98;}
	.st10{fill-rule:evenodd;clip-rule:evenodd;fill:#00A9E5;}
	.st11{fill-rule:evenodd;clip-rule:evenodd;fill:#FED10A;}
	.st12{fill-rule:evenodd;clip-rule:evenodd;fill:#00BFB3;}
	.st13{fill-rule:evenodd;clip-rule:evenodd;fill:#FFFFFF;}
	.st14{fill:#F9B110;}
	.st15{fill:#FED10A;}
	.st16{fill:#3EBEB0;}
	.st17{fill:#F04E98;}
</style>
<path id="Cloud_2_" class="st5" d="M274.9,233.8c-23.4,29.2-59.4,48-99.7,48c-40.3,0-76.3-18.8-99.7-48
	c23.4-29.2,59.4-47.9,99.7-47.9S251.4,204.7,274.9,233.8z M143.2,154c0-16.2,13.4-32,28.1-32c-0.1,0,4.2,0.1,4.3,0.1
	c41.7,0,75.9-18.8,99.3-47.9c-23.4-29.2-59.4-48-99.7-48c-40.3,0-76.3,18.8-99.7,48c0,0,0,0,0,0C57.9,96.1,47.3,123.8,47.3,154
	c0,20.6,4.9,40.1,13.7,57.4c22.2-24.8,52-41.1,84.1-47.6C144.2,160.8,143.2,157.3,143.2,154z"/>
</svg>
