<?xml version="1.0" encoding="utf-8"?>
<!-- Generator: Adobe Illustrator 21.1.0, SVG Export Plug-In . SVG Version: 6.00 Build 0)  -->
<svg version="1.1" id="Layer_1" xmlns="http://www.w3.org/2000/svg" xmlns:xlink="http://www.w3.org/1999/xlink" x="0px" y="0px"
	 viewBox="0 0 875.3 308" style="enable-background:new 0 0 875.3 308;" xml:space="preserve">
<style type="text/css">
	.st0{fill:none;}
	.st1{enable-background:new    ;}
	.st2{fill:#FED10A;}
	.st3{fill:#0078A0;}
	.st4{fill:#00A9E5;}
	.st5{fill:#353535;}
	.st6{fill:#00BFB3;}
	.st7{fill:#019B8F;}
</style>
<g>
	<rect x="349.6" y="77.8" class="st0" width="540.3" height="134.3"/>
	<g class="st1">
		<path d="M381.4,153.8l-28.5-41.5h20.6l19.3,29.7l19.5-29.7h20.4l-28.5,41.5l30,43.4h-20.4l-21-31.8l-20.9,31.8h-20.4L381.4,153.8z
			"/>
		<path d="M441.7,162.7v-15.3h39.4v15.3H441.7z"/>
		<path d="M542.7,198.7c-10.7,0-19.1-3.9-25-11.6h-1.1c0.7,7.2,1.1,11.5,1.1,13V235h-18V112.3h14.6c0.4,1.6,1.3,5.4,2.5,11.4h0.9
			c5.6-8.6,14.1-12.9,25.3-12.9c10.6,0,18.8,3.8,24.8,11.5c5.9,7.7,8.9,18.4,8.9,32.3s-3,24.7-9,32.5
			C561.6,194.9,553.3,198.7,542.7,198.7z M538.3,125.5c-7.2,0-12.4,2.1-15.7,6.3c-3.3,4.2-5,10.9-5,20.1v2.7
			c0,10.3,1.6,17.8,4.9,22.4c3.3,4.6,8.6,6.9,16,6.9c6.2,0,11.1-2.6,14.4-7.7c3.4-5.1,5.1-12.4,5.1-21.9c0-9.5-1.7-16.7-5-21.6
			C549.7,128,544.8,125.5,538.3,125.5z"/>
		<path d="M650.7,197.2l-3.6-11.8h-0.6c-4.1,5.2-8.2,8.7-12.4,10.6c-4.1,1.9-9.5,2.8-16,2.8c-8.3,0-14.8-2.3-19.5-6.8
			c-4.7-4.5-7-10.9-7-19.1c0-8.7,3.2-15.3,9.7-19.8c6.5-4.5,16.4-6.9,29.7-7.3l14.7-0.5v-4.5c0-5.4-1.3-9.5-3.8-12.2
			c-2.5-2.7-6.5-4-11.8-4c-4.3,0-8.5,0.6-12.5,1.9c-4,1.3-7.8,2.8-11.5,4.5l-5.8-12.9c4.6-2.4,9.6-4.2,15.1-5.5
			c5.5-1.3,10.6-1.9,15.5-1.9c10.8,0,18.9,2.4,24.4,7.1c5.5,4.7,8.2,12.1,8.2,22.2v57.2H650.7z M623.8,184.9
			c6.5,0,11.8-1.8,15.8-5.5c4-3.7,5.9-8.8,5.9-15.4v-7.4l-10.9,0.5c-8.5,0.3-14.7,1.7-18.5,4.3c-3.9,2.5-5.8,6.4-5.8,11.6
			c0,3.8,1.1,6.7,3.4,8.8C615.9,183.9,619.3,184.9,623.8,184.9z"/>
		<path d="M723,198.7c-12.8,0-22.6-3.7-29.3-11.2s-10-18.3-10-32.3c0-14.3,3.5-25.2,10.5-32.9c7-7.7,17.1-11.5,30.3-11.5
			c9,0,17,1.7,24.2,5l-5.4,14.5c-7.6-3-13.9-4.5-18.9-4.5c-14.7,0-22,9.7-22,29.2c0,9.5,1.8,16.7,5.5,21.5c3.7,4.8,9,7.2,16.1,7.2
			c8,0,15.6-2,22.8-6v15.7c-3.2,1.9-6.7,3.2-10.3,4.1C732.6,198.3,728.2,198.7,723,198.7z"/>
		<path d="M784,152.4l10.2-12.7l25.6-27.3h20.8l-34.2,36.5l36.3,48.4h-21.2L794.3,160l-9.9,8.1v29.1h-17.9V77.8h17.9V136l-0.9,16.3
			H784z"/>
	</g>
	<g id="X-Pack_2_">
		<path class="st2" d="M224.7,159.6l-64.4-64.4l54.8-54.8c15.5-15.5,40.5-15.5,56,0l8.4,8.4c15.5,15.5,15.5,40.5,0,56L224.7,159.6z"
			/>
		<path class="st3" d="M96,159.6l-55.2,55.2c-15.2,15.2-15.2,39.9,0,55.2l9.2,9.2c15.2,15.2,39.9,15.2,55.2,0l55.2-55.2L96,159.6z"
			/>
		<g>
			<path class="st4" d="M215.5,150.4L105.2,40.1C90,24.9,65.3,24.9,50,40.1l-9.2,9.2c-15.2,15.2-15.2,39.9,0,55.2L96,159.6l9.2-9.2
				C135.6,119.9,185.1,119.9,215.5,150.4z"/>
			<path class="st5" d="M215.5,150.4c-30.5-30.5-79.9-30.5-110.4,0l-9.2,9.2l0,0l64.4,64.4l64.4-64.4L215.5,150.4z"/>
		</g>
		<g>
			<path class="st6" d="M279.9,214.8L243.1,178l-64.4,64.4l36.8,36.8c15.2,15.2,39.9,15.2,55.2,0l9.2-9.2
				C295.1,254.7,295.1,230,279.9,214.8z"/>
			
				<rect x="156.2" y="188" transform="matrix(0.7071 -0.7071 0.7071 0.7071 -83.0646 201.5087)" class="st7" width="91" height="26"/>
		</g>
	</g>
</g>
</svg>
