<?xml version="1.0" encoding="utf-8"?>
<!-- Generator: Adobe Illustrator 21.1.0, SVG Export Plug-In . SVG Version: 6.00 Build 0)  -->
<svg version="1.1" id="Layer_1" xmlns="http://www.w3.org/2000/svg" xmlns:xlink="http://www.w3.org/1999/xlink" x="0px" y="0px"
	 viewBox="0 0 953.3 308" style="enable-background:new 0 0 953.3 308;" xml:space="preserve">
<style type="text/css">
	.st0{fill:none;}
	.st1{enable-background:new    ;}
	.st2{fill:#FED10A;}
	.st3{fill:#353535;}
	.st4{fill:#00BFB3;}
	.st5{fill:#019B8F;}
</style>
<rect x="304.6" y="72.2" class="st0" width="723.4" height="134.2"/>
<g class="st1">
	<path d="M335.5,191.6h-18V72.2h18V191.6z"/>
	<path d="M436.6,149c0,13.9-3.6,24.7-10.7,32.5c-7.1,7.8-17,11.7-29.7,11.7c-7.9,0-14.9-1.8-21-5.4c-6.1-3.6-10.8-8.7-14-15.4
		c-3.3-6.7-4.9-14.5-4.9-23.3c0-13.8,3.5-24.5,10.6-32.2c7.1-7.7,17-11.6,29.8-11.6c12.3,0,22,4,29.2,11.9
		C433,124.9,436.6,135.6,436.6,149z M374.8,149c0,19.6,7.2,29.4,21.7,29.4c14.3,0,21.5-9.8,21.5-29.4c0-19.4-7.2-29.1-21.6-29.1
		c-7.6,0-13.1,2.5-16.5,7.5C376.5,132.5,374.8,139.6,374.8,149z"/>
	<path d="M528.9,106.7v9.9l-14.5,2.7c1.3,1.8,2.4,4,3.3,6.6c0.9,2.6,1.3,5.4,1.3,8.3c0,8.7-3,15.6-9.1,20.6c-6,5-14.3,7.5-24.9,7.5
		c-2.7,0-5.2-0.2-7.4-0.6c-3.9,2.4-5.8,5.2-5.8,8.4c0,1.9,0.9,3.4,2.7,4.4c1.8,1,5.2,1.5,10,1.5h14.8c9.4,0,16.5,2,21.3,6
		c4.9,4,7.3,9.7,7.3,17.3c0,9.6-4,17-11.9,22.2c-7.9,5.2-19.4,7.8-34.4,7.8c-11.6,0-20.4-2-26.5-6.1c-6.1-4.1-9.1-9.9-9.1-17.5
		c0-5.2,1.6-9.6,4.9-13.2c3.3-3.6,7.9-6,13.8-7.4c-2.4-1-4.4-2.7-5.9-4.9c-1.6-2.3-2.3-4.7-2.3-7.2c0-3.2,0.9-5.9,2.7-8.1
		c1.8-2.2,4.4-4.4,8-6.5c-4.4-1.9-8-5-10.7-9.2c-2.7-4.3-4.1-9.3-4.1-15c0-9.2,2.9-16.3,8.7-21.4c5.8-5.1,14.1-7.6,24.8-7.6
		c2.4,0,4.9,0.2,7.6,0.5c2.6,0.3,4.6,0.7,5.9,1H528.9z M462.3,204.8c0,3.9,1.8,6.9,5.3,9c3.5,2.1,8.4,3.1,14.8,3.1
		c9.8,0,17.1-1.4,21.9-4.2c4.8-2.8,7.2-6.5,7.2-11.2c0-3.7-1.3-6.3-4-7.9c-2.6-1.6-7.5-2.3-14.7-2.3h-13.7c-5.2,0-9.3,1.2-12.3,3.6
		C463.8,197.3,462.3,200.6,462.3,204.8z M470,134.2c0,5.3,1.4,9.4,4.1,12.3c2.7,2.9,6.7,4.3,11.8,4.3c10.4,0,15.7-5.6,15.7-16.7
		c0-5.5-1.3-9.8-3.9-12.8c-2.6-3-6.5-4.5-11.8-4.5c-5.2,0-9.2,1.5-11.9,4.4C471.4,124.2,470,128.5,470,134.2z"/>
	<path d="M601.7,167.4c0,8.3-3,14.6-9.1,19.1c-6,4.4-14.7,6.6-25.9,6.6c-11.3,0-20.4-1.7-27.2-5.1v-15.6c10,4.6,19.3,6.9,27.8,6.9
		c11.1,0,16.6-3.3,16.6-10.1c0-2.1-0.6-3.9-1.8-5.4c-1.2-1.4-3.2-2.9-6.1-4.4c-2.8-1.5-6.7-3.3-11.7-5.2
		c-9.8-3.8-16.4-7.6-19.8-11.4c-3.5-3.8-5.2-8.7-5.2-14.7c0-7.3,2.9-12.9,8.8-16.9c5.9-4,13.8-6,23.9-6c10,0,19.4,2,28.3,6.1
		l-5.8,13.6c-9.2-3.8-16.9-5.7-23.1-5.7c-9.5,0-14.3,2.7-14.3,8.1c0,2.7,1.2,4.9,3.7,6.8c2.5,1.8,7.9,4.4,16.2,7.6
		c7,2.7,12.1,5.2,15.3,7.4c3.2,2.3,5.5,4.8,7.1,7.8C600.9,159.8,601.7,163.3,601.7,167.4z"/>
	<path d="M652.8,178.5c4.4,0,8.8-0.7,13.2-2.1V190c-2,0.9-4.6,1.6-7.7,2.2c-3.1,0.6-6.4,0.9-9.8,0.9c-17.1,0-25.6-9-25.6-27v-45.7
		h-11.6v-8l12.4-6.6l6.1-18h11.1v18.9h24.2v13.7h-24.2v45.4c0,4.3,1.1,7.6,3.3,9.6C646.4,177.5,649.2,178.5,652.8,178.5z"/>
	<path d="M736,191.6l-3.6-11.8h-0.6c-4.1,5.2-8.2,8.7-12.4,10.5s-9.5,2.8-16,2.8c-8.3,0-14.8-2.2-19.5-6.8c-4.7-4.5-7-10.9-7-19.1
		c0-8.7,3.2-15.3,9.7-19.8c6.5-4.5,16.4-6.9,29.7-7.3l14.7-0.5v-4.5c0-5.4-1.3-9.5-3.8-12.2c-2.5-2.7-6.5-4-11.8-4
		c-4.3,0-8.5,0.6-12.5,1.9c-4,1.3-7.8,2.8-11.5,4.5l-5.8-12.9c4.6-2.4,9.6-4.2,15.1-5.5c5.5-1.3,10.6-1.9,15.5-1.9
		c10.8,0,18.9,2.4,24.4,7.1c5.5,4.7,8.2,12.1,8.2,22.2v57.2H736z M709.1,179.3c6.5,0,11.8-1.8,15.8-5.5c4-3.7,5.9-8.8,5.9-15.4v-7.4
		l-10.9,0.5c-8.5,0.3-14.7,1.7-18.5,4.3c-3.9,2.5-5.8,6.4-5.8,11.6c0,3.8,1.1,6.7,3.4,8.8C701.3,178.3,704.6,179.3,709.1,179.3z"/>
	<path d="M831,167.4c0,8.3-3,14.6-9.1,19.1c-6,4.4-14.7,6.6-25.9,6.6c-11.3,0-20.4-1.7-27.2-5.1v-15.6c10,4.6,19.3,6.9,27.8,6.9
		c11.1,0,16.6-3.3,16.6-10.1c0-2.1-0.6-3.9-1.8-5.4c-1.2-1.4-3.2-2.9-6.1-4.4c-2.8-1.5-6.7-3.3-11.7-5.2
		c-9.8-3.8-16.4-7.6-19.8-11.4c-3.5-3.8-5.2-8.7-5.2-14.7c0-7.3,2.9-12.9,8.8-16.9c5.9-4,13.8-6,23.9-6c10,0,19.4,2,28.3,6.1
		l-5.8,13.6c-9.2-3.8-16.9-5.7-23.1-5.7c-9.5,0-14.3,2.7-14.3,8.1c0,2.7,1.2,4.9,3.7,6.8c2.5,1.8,7.9,4.4,16.2,7.6
		c7,2.7,12.1,5.2,15.3,7.4c3.2,2.3,5.5,4.8,7.1,7.8C830.3,159.8,831,163.3,831,167.4z"/>
	<path d="M925.2,191.6h-18.1v-52.2c0-6.5-1.3-11.4-4-14.7c-2.6-3.2-6.8-4.8-12.5-4.8c-7.6,0-13.1,2.3-16.7,6.8
		c-3.6,4.5-5.3,12.1-5.3,22.7v42.1h-18V72.2h18v30.3c0,4.9-0.3,10-0.9,15.6h1.2c2.5-4.1,5.9-7.3,10.2-9.5c4.4-2.2,9.5-3.4,15.3-3.4
		c20.6,0,30.8,10.4,30.8,31.1V191.6z"/>
</g>
<g id="Logstash_3_">
	<g>
		<path class="st2" d="M62.4,23.1H23.1v144h117.8v-65.5C140.9,59.6,104.4,23.1,62.4,23.1z"/>
		<path class="st3" d="M23.1,183.5c0,57,60.8,101.5,117.8,101.5V167.1H23.1V183.5z"/>
	</g>
	<g>
		<rect x="167.1" y="167.1" class="st4" width="78.6" height="117.8"/>
		<rect x="140.9" y="167.1" class="st5" width="26.2" height="117.8"/>
	</g>
</g>
</svg>
