<?xml version="1.0" encoding="utf-8"?>
<!-- Generator: Adobe Illustrator 21.1.0, SVG Export Plug-In . SVG Version: 6.00 Build 0)  -->
<svg version="1.1" id="Layer_1" xmlns="http://www.w3.org/2000/svg" xmlns:xlink="http://www.w3.org/1999/xlink" x="0px" y="0px"
	 viewBox="0 0 322.2 308" style="enable-background:new 0 0 322.2 308;" xml:space="preserve">
<style type="text/css">
	.st0{fill:#00A9E5;}
	.st1{fill:#353535;}
	.st2{fill:none;}
	.st3{fill:#00BFB3;}
	.st4{fill:#019B8F;}
	.st5{fill:#FFFFFF;}
	.st6{fill:#93C90E;}
	.st7{fill:#74A300;}
	.st8{fill:#0078A0;}
	.st9{fill-rule:evenodd;clip-rule:evenodd;fill:#F04E98;}
	.st10{fill-rule:evenodd;clip-rule:evenodd;fill:#00A9E5;}
	.st11{fill-rule:evenodd;clip-rule:evenodd;fill:#FED10A;}
	.st12{fill-rule:evenodd;clip-rule:evenodd;fill:#00BFB3;}
	.st13{fill-rule:evenodd;clip-rule:evenodd;fill:#FFFFFF;}
	.st14{fill:#F9B110;}
	.st15{fill:#FED10A;}
	.st16{fill:#3EBEB0;}
	.st17{fill:#F04E98;}
</style>
<path id="X-Pack_5_" class="st5" d="M180.3,239.9l63.7-63.7l36.4,36.4c15.1,15.1,15.1,39.5,0,54.6l-9.1,9.1
	c-15.1,15.1-39.5,15.1-54.6,0L180.3,239.9z M280.4,48.8l-9.1-9.1c-15.1-15.1-39.5-15.1-54.6,0l-54.6,54.6v0l-54.6-54.6
	c-15.1-15.1-39.5-15.1-54.6,0l-9.1,9.1c-15.1,15.1-15.1,39.5,0,54.6L98.4,158l0,0l-54.6,54.6c-15.1,15.1-15.1,39.5,0,54.6l9.1,9.1
	c15.1,15.1,39.5,15.1,54.6,0l54.6-54.6l40-40l23.7-23.7l54.6-54.6C295.5,88.3,295.5,63.9,280.4,48.8z"/>
</svg>
