<?xml version="1.0" encoding="utf-8"?>
<!-- Generator: Adobe Illustrator 21.1.0, SVG Export Plug-In . SVG Version: 6.00 Build 0)  -->
<svg version="1.1" id="Layer_1" xmlns="http://www.w3.org/2000/svg" xmlns:xlink="http://www.w3.org/1999/xlink" x="0px" y="0px"
	 viewBox="0 0 1259.3 308" style="enable-background:new 0 0 1259.3 308;" xml:space="preserve">
<style type="text/css">
	.st0{fill:#F04E98;}
	.st1{fill:#00A9E5;}
	.st2{fill:#FED10A;}
	.st3{fill:#00BFB3;}
	.st4{fill:none;}
	.st5{enable-background:new    ;}
</style>
<g>
	<path class="st0" d="M26.6,55.5c0-13.6,10.9-24.6,24.6-24.6h197c13.6,0,24.6,11,24.6,24.6v49.2H26.6V55.5z"/>
	<path class="st1" d="M26.6,203.2h117v73.9H51.2c-13.3,0-24.6-10.8-24.6-24.1V203.2z"/>
	<path class="st2" d="M155.9,203.2h117v49.2c0,13.3-11.3,24.6-24.6,24.6H156L155.9,203.2L155.9,203.2z"/>
	<rect x="26.6" y="117" class="st3" width="246.2" height="73.9"/>
</g>
<rect x="328.3" y="73.4" class="st4" width="991" height="129.8"/>
<g class="st5">
	<path d="M375.6,188.1c-12.5,0-22.3-3.6-29.4-10.9c-7.1-7.3-10.6-17.4-10.6-30.2c0-13.1,3.3-23.5,9.8-31c6.5-7.5,15.5-11.3,27-11.3
		c10.6,0,19,3.2,25.2,9.7c6.2,6.5,9.2,15.3,9.2,26.6v9.2h-53.6c0.2,7.8,2.4,13.8,6.3,18c4,4.2,9.6,6.3,16.8,6.3
		c4.8,0,9.2-0.4,13.3-1.3c4.1-0.9,8.5-2.4,13.2-4.5v13.9c-4.2,2-8.4,3.4-12.7,4.2C386,187.7,381.1,188.1,375.6,188.1z M372.5,117.7
		c-5.4,0-9.8,1.7-13.1,5.2c-3.3,3.4-5.2,8.5-5.9,15.1h36.5c-0.1-6.6-1.7-11.7-4.8-15.1C382.2,119.4,377.9,117.7,372.5,117.7z"/>
	<path d="M443.4,186.6h-17.1V73.4h17.1V186.6z"/>
	<path d="M518.2,186.6l-3.4-11.2h-0.6c-3.9,4.9-7.8,8.2-11.7,10c-3.9,1.8-9,2.7-15.1,2.7c-7.9,0-14.1-2.1-18.5-6.4
		c-4.4-4.3-6.7-10.3-6.7-18.1c0-8.3,3.1-14.6,9.2-18.8c6.2-4.2,15.5-6.5,28.2-6.9l13.9-0.4v-4.3c0-5.1-1.2-9-3.6-11.5
		c-2.4-2.5-6.1-3.8-11.2-3.8c-4.1,0-8.1,0.6-11.9,1.8c-3.8,1.2-7.4,2.6-10.9,4.3l-5.5-12.2c4.4-2.3,9.1-4,14.3-5.2
		c5.2-1.2,10.1-1.8,14.7-1.8c10.2,0,18,2.2,23.2,6.7c5.2,4.5,7.8,11.5,7.8,21v54.2H518.2z M492.8,175c6.2,0,11.2-1.7,15-5.2
		c3.8-3.5,5.6-8.3,5.6-14.6v-7l-10.3,0.4c-8.1,0.3-13.9,1.6-17.6,4c-3.7,2.4-5.5,6.1-5.5,11c0,3.6,1.1,6.4,3.2,8.3
		C485.3,174,488.5,175,492.8,175z"/>
	<path d="M608.4,163.7c0,7.9-2.9,13.9-8.6,18.1c-5.7,4.2-13.9,6.3-24.6,6.3c-10.7,0-19.3-1.6-25.8-4.9v-14.8
		c9.5,4.4,18.3,6.5,26.4,6.5c10.5,0,15.8-3.2,15.8-9.5c0-2-0.6-3.7-1.7-5.1c-1.2-1.4-3.1-2.8-5.7-4.2c-2.7-1.5-6.4-3.1-11.1-4.9
		c-9.3-3.6-15.5-7.2-18.8-10.8c-3.3-3.6-4.9-8.2-4.9-14c0-6.9,2.8-12.2,8.3-16c5.6-3.8,13.1-5.7,22.7-5.7c9.5,0,18.4,1.9,26.8,5.7
		l-5.5,12.9c-8.7-3.6-16-5.4-21.9-5.4c-9,0-13.5,2.6-13.5,7.7c0,2.5,1.2,4.7,3.5,6.4c2.4,1.7,7.5,4.1,15.4,7.2
		c6.6,2.6,11.5,4.9,14.5,7.1c3,2.1,5.2,4.6,6.7,7.4C607.6,156.5,608.4,159.8,608.4,163.7z"/>
	<path d="M656.8,174.3c4.2,0,8.3-0.7,12.5-2v12.9c-1.9,0.8-4.3,1.5-7.3,2.1c-3,0.6-6.1,0.8-9.3,0.8c-16.2,0-24.3-8.5-24.3-25.6
		v-43.4h-11v-7.6l11.8-6.3l5.8-17h10.5v17.9h22.9v13h-22.9v43.1c0,4.1,1,7.2,3.1,9.1C650.8,173.3,653.5,174.3,656.8,174.3z"/>
	<path d="M684.4,84.9c0-3.1,0.8-5.4,2.5-7.1c1.7-1.6,4.1-2.5,7.2-2.5c3,0,5.3,0.8,7,2.5c1.7,1.6,2.5,4,2.5,7.1
		c0,2.9-0.8,5.2-2.5,6.9c-1.7,1.7-4,2.5-7,2.5c-3.1,0-5.5-0.8-7.2-2.5C685.2,90.1,684.4,87.8,684.4,84.9z M702.5,186.6h-17.1v-80.5
		h17.1V186.6z"/>
	<path d="M759.4,188.1c-12.2,0-21.4-3.6-27.8-10.7c-6.3-7.1-9.5-17.3-9.5-30.6c0-13.5,3.3-23.9,9.9-31.2
		c6.6-7.3,16.2-10.9,28.7-10.9c8.5,0,16.1,1.6,22.9,4.7l-5.2,13.8c-7.2-2.8-13.2-4.2-17.9-4.2c-13.9,0-20.9,9.2-20.9,27.7
		c0,9,1.7,15.8,5.2,20.3c3.5,4.5,8.5,6.8,15.2,6.8c7.6,0,14.8-1.9,21.6-5.7v14.9c-3.1,1.8-6.3,3.1-9.8,3.9
		C768.5,187.7,764.3,188.1,759.4,188.1z"/>
	<path d="M893.5,163.7c0,7.9-2.9,13.9-8.6,18.1c-5.7,4.2-13.9,6.3-24.6,6.3c-10.7,0-19.3-1.6-25.8-4.9v-14.8
		c9.5,4.4,18.3,6.5,26.4,6.5c10.5,0,15.8-3.2,15.8-9.5c0-2-0.6-3.7-1.7-5.1c-1.2-1.4-3.1-2.8-5.7-4.2c-2.7-1.5-6.4-3.1-11.1-4.9
		c-9.3-3.6-15.5-7.2-18.8-10.8c-3.3-3.6-4.9-8.2-4.9-14c0-6.9,2.8-12.2,8.3-16c5.6-3.8,13.1-5.7,22.7-5.7c9.5,0,18.4,1.9,26.8,5.7
		l-5.5,12.9c-8.7-3.6-16-5.4-21.9-5.4c-9,0-13.5,2.6-13.5,7.7c0,2.5,1.2,4.7,3.5,6.4s7.5,4.1,15.4,7.2c6.6,2.6,11.5,4.9,14.5,7.1
		c3,2.1,5.2,4.6,6.7,7.4C892.8,156.5,893.5,159.8,893.5,163.7z"/>
	<path d="M941.9,174.3c4.2,0,8.3-0.7,12.5-2v12.9c-1.9,0.8-4.3,1.5-7.3,2.1c-3,0.6-6.1,0.8-9.3,0.8c-16.2,0-24.3-8.5-24.3-25.6
		v-43.4h-11v-7.6l11.8-6.3l5.8-17h10.5v17.9h22.9v13h-22.9v43.1c0,4.1,1,7.2,3.1,9.1C935.9,173.3,938.6,174.3,941.9,174.3z"/>
	<path d="M1020.9,186.6l-3.4-11.2h-0.6c-3.9,4.9-7.8,8.2-11.7,10c-3.9,1.8-9,2.7-15.1,2.7c-7.9,0-14.1-2.1-18.5-6.4
		c-4.4-4.3-6.7-10.3-6.7-18.1c0-8.3,3.1-14.6,9.2-18.8c6.2-4.2,15.5-6.5,28.2-6.9l13.9-0.4v-4.3c0-5.1-1.2-9-3.6-11.5
		c-2.4-2.5-6.1-3.8-11.2-3.8c-4.1,0-8.1,0.6-11.9,1.8c-3.8,1.2-7.4,2.6-10.9,4.3l-5.5-12.2c4.4-2.3,9.1-4,14.3-5.2
		c5.2-1.2,10.1-1.8,14.7-1.8c10.2,0,18,2.2,23.2,6.7c5.2,4.5,7.8,11.5,7.8,21v54.2H1020.9z M995.4,175c6.2,0,11.2-1.7,15-5.2
		c3.8-3.5,5.6-8.3,5.6-14.6v-7l-10.3,0.4c-8.1,0.3-13.9,1.6-17.6,4c-3.7,2.4-5.5,6.1-5.5,11c0,3.6,1.1,6.4,3.2,8.3
		C987.9,174,991.1,175,995.4,175z"/>
	<path d="M1089.4,188.1c-12.2,0-21.4-3.6-27.8-10.7c-6.3-7.1-9.5-17.3-9.5-30.6c0-13.5,3.3-23.9,9.9-31.2
		c6.6-7.3,16.2-10.9,28.7-10.9c8.5,0,16.1,1.6,22.9,4.7l-5.2,13.8c-7.2-2.8-13.2-4.2-17.9-4.2c-13.9,0-20.9,9.2-20.9,27.7
		c0,9,1.7,15.8,5.2,20.3c3.5,4.5,8.5,6.8,15.2,6.8c7.6,0,14.8-1.9,21.6-5.7v14.9c-3.1,1.8-6.3,3.1-9.8,3.9
		C1098.6,187.7,1094.4,188.1,1089.4,188.1z"/>
	<path d="M1147.2,144.2l9.7-12.1l24.3-25.9h19.7l-32.4,34.6l34.4,45.9h-20.1l-25.8-35.3l-9.4,7.7v27.6h-17V73.4h17v55.2l-0.9,15.5
		H1147.2z"/>
</g>
</svg>
