<?xml version="1.0" encoding="utf-8"?>
<!-- Generator: Adobe Illustrator 21.1.0, SVG Export Plug-In . SVG Version: 6.00 Build 0)  -->
<svg version="1.1" id="Layer_1" xmlns="http://www.w3.org/2000/svg" xmlns:xlink="http://www.w3.org/1999/xlink" x="0px" y="0px"
	 viewBox="0 0 1226.3 308" style="enable-background:new 0 0 1226.3 308;" xml:space="preserve">
<style type="text/css">
	.st0{fill:none;}
	.st1{enable-background:new    ;}
	.st2{fill:#93C90E;}
	.st3{fill:#74A300;}
	.st4{fill:#00A9E5;}
	.st5{fill:#0078A0;}
	.st6{fill:#353535;}
</style>
<rect x="300.3" y="74" class="st0" width="926" height="129.6"/>
<g class="st1">
	<path d="M348.5,190.8c-12.7,0-22.7-3.7-29.9-11.1c-7.2-7.4-10.8-17.7-10.8-30.7c0-13.4,3.3-23.9,10-31.6
		c6.7-7.7,15.8-11.5,27.5-11.5c10.8,0,19.4,3.3,25.6,9.9c6.3,6.6,9.4,15.6,9.4,27.1v9.4h-54.6c0.2,8,2.4,14.1,6.4,18.3
		c4,4.3,9.8,6.4,17.1,6.4c4.8,0,9.3-0.5,13.5-1.4c4.2-0.9,8.7-2.4,13.4-4.6v14.1c-4.2,2-8.5,3.5-12.9,4.3
		C359.1,190.3,354.1,190.8,348.5,190.8z M345.3,119.1c-5.5,0-10,1.8-13.3,5.3c-3.3,3.5-5.3,8.6-6,15.3h37.2
		c-0.1-6.8-1.7-11.9-4.9-15.4C355.2,120.8,350.9,119.1,345.3,119.1z"/>
	<path d="M417.5,189.3h-17.4V74h17.4V189.3z"/>
	<path d="M493.7,189.3l-3.5-11.4h-0.6c-4,5-7.9,8.4-11.9,10.2c-4,1.8-9.1,2.7-15.4,2.7c-8,0-14.3-2.2-18.9-6.5
		c-4.5-4.3-6.8-10.5-6.8-18.4c0-8.4,3.1-14.8,9.4-19.1c6.3-4.3,15.8-6.6,28.7-7l14.1-0.4v-4.4c0-5.2-1.2-9.1-3.7-11.7
		c-2.4-2.6-6.2-3.9-11.4-3.9c-4.2,0-8.2,0.6-12.1,1.9c-3.9,1.2-7.6,2.7-11.1,4.4L445,113c4.4-2.3,9.3-4.1,14.6-5.3
		c5.3-1.2,10.3-1.8,15-1.8c10.4,0,18.3,2.3,23.6,6.8c5.3,4.5,8,11.7,8,21.4v55.2H493.7z M467.8,177.4c6.3,0,11.4-1.8,15.2-5.3
		c3.8-3.5,5.7-8.5,5.7-14.9v-7.1l-10.5,0.4c-8.2,0.3-14.2,1.7-17.9,4.1c-3.7,2.4-5.6,6.2-5.6,11.2c0,3.7,1.1,6.5,3.3,8.5
		C460.2,176.4,463.4,177.4,467.8,177.4z"/>
	<path d="M585.5,165.9c0,8-2.9,14.1-8.7,18.4c-5.8,4.3-14.2,6.4-25,6.4c-10.9,0-19.7-1.7-26.3-5v-15c9.6,4.4,18.6,6.7,26.9,6.7
		c10.7,0,16.1-3.2,16.1-9.7c0-2.1-0.6-3.8-1.8-5.2c-1.2-1.4-3.1-2.8-5.9-4.3c-2.7-1.5-6.5-3.2-11.3-5c-9.4-3.7-15.8-7.3-19.1-11
		c-3.3-3.7-5-8.4-5-14.2c0-7,2.8-12.5,8.5-16.3c5.7-3.9,13.3-5.8,23.1-5.8c9.6,0,18.7,2,27.3,5.9l-5.6,13.1
		c-8.8-3.7-16.3-5.5-22.3-5.5c-9.2,0-13.8,2.6-13.8,7.9c0,2.6,1.2,4.7,3.6,6.5c2.4,1.8,7.6,4.2,15.7,7.3c6.8,2.6,11.7,5,14.7,7.2
		c3.1,2.2,5.3,4.7,6.8,7.5C584.7,158.6,585.5,162,585.5,165.9z"/>
	<path d="M634.8,176.7c4.2,0,8.5-0.7,12.7-2v13.1c-1.9,0.8-4.4,1.5-7.4,2.1c-3,0.6-6.2,0.9-9.4,0.9c-16.5,0-24.7-8.7-24.7-26.1
		v-44.1h-11.2v-7.7l12-6.4l5.9-17.3h10.7v18.2h23.3v13.2h-23.3v43.9c0,4.2,1,7.3,3.1,9.3C628.6,175.7,631.4,176.7,634.8,176.7z"/>
	<path d="M662.9,85.6c0-3.1,0.9-5.5,2.6-7.2c1.7-1.7,4.1-2.5,7.3-2.5c3.1,0,5.4,0.8,7.1,2.5c1.7,1.7,2.6,4.1,2.6,7.2
		c0,3-0.9,5.3-2.6,7c-1.7,1.7-4.1,2.6-7.1,2.6c-3.2,0-5.6-0.9-7.3-2.6C663.7,90.9,662.9,88.6,662.9,85.6z M681.3,189.3h-17.4v-81.9
		h17.4V189.3z"/>
	<path d="M739.2,190.8c-12.4,0-21.8-3.6-28.3-10.9c-6.4-7.2-9.7-17.6-9.7-31.1c0-13.8,3.4-24.4,10.1-31.8
		c6.7-7.4,16.5-11.1,29.2-11.1c8.6,0,16.4,1.6,23.3,4.8l-5.3,14c-7.4-2.9-13.4-4.3-18.2-4.3c-14.2,0-21.3,9.4-21.3,28.2
		c0,9.2,1.8,16.1,5.3,20.7c3.5,4.6,8.7,6.9,15.5,6.9c7.8,0,15.1-1.9,22-5.8v15.2c-3.1,1.8-6.4,3.1-10,3.9
		C748.6,190.4,744.3,190.8,739.2,190.8z"/>
	<path d="M853.8,190.8c-12.4,0-21.8-3.6-28.3-10.9c-6.4-7.2-9.7-17.6-9.7-31.1c0-13.8,3.4-24.4,10.1-31.8
		c6.7-7.4,16.5-11.1,29.2-11.1c8.6,0,16.4,1.6,23.3,4.8l-5.3,14c-7.4-2.9-13.4-4.3-18.2-4.3c-14.2,0-21.3,9.4-21.3,28.2
		c0,9.2,1.8,16.1,5.3,20.7c3.5,4.6,8.7,6.9,15.5,6.9c7.8,0,15.1-1.9,22-5.8v15.2c-3.1,1.8-6.4,3.1-10,3.9
		C863.1,190.4,858.8,190.8,853.8,190.8z"/>
	<path d="M913.2,189.3h-17.4V74h17.4V189.3z"/>
	<path d="M1010.8,148.2c0,13.4-3.4,23.8-10.3,31.3c-6.9,7.5-16.4,11.3-28.7,11.3c-7.7,0-14.4-1.7-20.3-5.2
		c-5.9-3.5-10.4-8.4-13.6-14.9c-3.2-6.5-4.7-14-4.7-22.5c0-13.3,3.4-23.7,10.2-31.1c6.8-7.5,16.4-11.2,28.8-11.2
		c11.9,0,21.2,3.8,28.1,11.4C1007.3,124.9,1010.8,135.2,1010.8,148.2z M951.2,148.2c0,18.9,7,28.4,21,28.4
		c13.8,0,20.7-9.5,20.7-28.4c0-18.7-7-28.1-20.9-28.1c-7.3,0-12.6,2.4-15.9,7.3C952.8,132.2,951.2,139.1,951.2,148.2z"/>
	<path d="M1088.6,189.3l-2.4-10.7h-0.9c-2.4,3.8-5.9,6.8-10.3,9c-4.5,2.2-9.6,3.3-15.3,3.3c-9.9,0-17.3-2.5-22.2-7.4
		c-4.9-4.9-7.3-12.4-7.3-22.4v-53.6h17.6v50.5c0,6.3,1.3,11,3.9,14.1c2.6,3.1,6.6,4.7,12.1,4.7c7.3,0,12.7-2.2,16.1-6.6
		c3.4-4.4,5.1-11.7,5.1-22v-40.8h17.5v81.9H1088.6z"/>
	<path d="M1154.7,190.8c-10.2,0-18.2-3.7-23.9-11.1s-8.6-17.8-8.6-31.2c0-13.4,2.9-23.9,8.7-31.4s13.8-11.2,24.1-11.2
		c10.8,0,19,4,24.6,11.9h0.9c-0.8-5.9-1.3-10.5-1.3-13.9V74h17.5v115.3h-13.6l-3-10.7h-0.8C1173.7,186.7,1165.5,190.8,1154.7,190.8z
		 M1159.4,176.7c7.2,0,12.4-2,15.6-6c3.3-4,4.9-10.6,5-19.6v-2.4c0-10.3-1.7-17.7-5-22c-3.4-4.3-8.6-6.5-15.8-6.5
		c-6.1,0-10.8,2.5-14.1,7.4c-3.3,5-5,12-5,21.2c0,9.1,1.6,16,4.8,20.8C1148.2,174.3,1153,176.7,1159.4,176.7z"/>
</g>
<g id="Cloud_4_">
	<g>
		<path class="st2" d="M107.7,190.2c1-0.3,2.1-0.6,3.1-0.9C109.7,189.6,108.7,189.8,107.7,190.2z"/>
		<path class="st2" d="M101.1,192.4c1-0.4,2.1-0.7,3.1-1.1C103.1,191.7,102.1,192,101.1,192.4z"/>
		<path class="st2" d="M88.3,197.9c1-0.5,2.1-1,3.1-1.5C90.4,196.9,89.3,197.4,88.3,197.9z"/>
		<path class="st2" d="M82.2,201.2c1-0.6,2.1-1.1,3.1-1.7C84.3,200,83.3,200.6,82.2,201.2z"/>
		<path class="st2" d="M94.6,195c1-0.4,2.1-0.9,3.1-1.3C96.7,194.1,95.6,194.5,94.6,195z"/>
		<path class="st2" d="M114.5,188.3c1-0.2,2-0.5,3-0.7C116.5,187.8,115.5,188,114.5,188.3z"/>
		<path class="st2" d="M121.5,186.8c1-0.2,2-0.4,3-0.5C123.5,186.4,122.5,186.6,121.5,186.8z"/>
		<path class="st2" d="M135.8,184.9c1-0.1,2-0.1,3-0.2C137.8,184.8,136.8,184.9,135.8,184.9z"/>
		<path class="st2" d="M144.8,184.6c-1.4,0-2.7,0.1-4.1,0.1c-8.6,33.1-30.2,60.9-59.1,77.7c18.6,10.8,40.1,17,63.1,17
			c39.8,0,75.4-18.6,98.6-47.5C220.2,203.1,184.7,184.6,144.8,184.6z"/>
		<path class="st2" d="M128.6,185.7c1-0.1,2-0.2,3-0.3C130.6,185.4,129.6,185.5,128.6,185.7z"/>
		<path class="st2" d="M70.7,208.6c1-0.7,2-1.4,3-2.1C72.7,207.2,71.7,207.9,70.7,208.6z"/>
		<path class="st2" d="M60.2,217.1c0.8-0.8,1.7-1.5,2.6-2.2C61.9,215.6,61,216.3,60.2,217.1z"/>
		<path class="st2" d="M60.6,247.1c-0.2-0.2-0.5-0.4-0.7-0.6C60.1,246.7,60.4,246.9,60.6,247.1z"/>
		<path class="st2" d="M76.4,204.7c1-0.7,2-1.3,3.1-1.9C78.4,203.4,77.4,204.1,76.4,204.7z"/>
		<path class="st2" d="M50.6,226.7c0.4-0.5,0.9-0.9,1.3-1.4C51.5,225.8,51,226.2,50.6,226.7z"/>
		<path class="st2" d="M55.3,221.8c0.7-0.7,1.4-1.4,2.2-2.1C56.7,220.4,56,221.1,55.3,221.8z"/>
		<path class="st2" d="M72.1,256.3c-0.8-0.5-1.5-1.1-2.2-1.6C70.7,255.2,71.4,255.8,72.1,256.3z"/>
		<path class="st2" d="M65.3,212.7c0.9-0.7,1.9-1.5,2.8-2.2C67.2,211.2,66.3,212,65.3,212.7z"/>
		<path class="st2" d="M66.4,252c-0.4-0.3-0.8-0.6-1.2-0.9C65.6,251.4,66,251.7,66.4,252z"/>
		<path class="st3" d="M140.7,184.7L140.7,184.7c-0.6,0-1.3,0-2,0.1c-1,0-2,0.1-3,0.2c-1.4,0.1-2.8,0.2-4.3,0.4c-1,0.1-2,0.2-3,0.3
			c-1.4,0.2-2.7,0.4-4.1,0.6c-1,0.2-2,0.3-3,0.5c-1.3,0.2-2.6,0.5-3.9,0.8c-1,0.2-2,0.5-3,0.7c-1.3,0.3-2.5,0.6-3.7,1
			c-1,0.3-2.1,0.6-3.1,0.9c-1.2,0.4-2.4,0.8-3.5,1.2c-1,0.4-2.1,0.7-3.1,1.1c-1.1,0.4-2.2,0.9-3.3,1.3c-1,0.4-2.1,0.8-3.1,1.3
			c-1.1,0.5-2.1,0.9-3.1,1.4s-2.1,1-3.1,1.5s-2,1-2.9,1.5c-1,0.6-2.1,1.1-3.1,1.7c-0.9,0.5-1.9,1.1-2.8,1.7c-1,0.6-2.1,1.2-3.1,1.9
			c-0.9,0.6-1.8,1.2-2.7,1.8c-1,0.7-2,1.3-3,2.1c-0.9,0.6-1.7,1.3-2.6,2s-1.9,1.4-2.8,2.2c-0.9,0.7-1.7,1.5-2.6,2.2
			c-0.9,0.7-1.7,1.5-2.6,2.2c-0.9,0.8-1.8,1.7-2.7,2.6c-0.7,0.7-1.5,1.4-2.2,2.1c-1.2,1.2-2.3,2.4-3.4,3.6c-0.4,0.5-0.9,0.9-1.3,1.4
			c-1.5,1.7-3,3.4-4.4,5.2c2.6,3.5,8.6,9.8,10.5,11.6c1.1,1,2.1,2,3.2,3c0.2,0.2,0.5,0.4,0.7,0.6c0.2,0.2,0.4,0.4,0.7,0.6
			c0.9,0.8,2.3,2,4,3.3c0.4,0.3,0.7,0.6,1.2,0.9c1.1,0.8,2.3,1.7,3.5,2.7c0.7,0.5,1.5,1.1,2.2,1.6c2.5,1.8,5.2,3.6,7.7,5.1
			c0.3,0.2,1.4,0.9,1.8,1l0,0C110.5,245.7,132.1,217.8,140.7,184.7z"/>
	</g>
	<g>
		<path class="st4" d="M144.8,26.6c-23,0-44.6,6.2-63.1,17c28.9,16.7,50.5,44.6,59.1,77.7c1.2,0,2.4,0.1,3.6,0.1c0.2,0,0.8,0,0.9,0
			c39.7-0.1,75.1-18.6,98.2-47.3C220.2,45.1,184.6,26.6,144.8,26.6z"/>
		<path class="st4" d="M52.7,66.6c-2.3,2.4-4.5,4.9-6.5,7.4l0.1,0.1c0,0,0,0-0.1-0.1C48.1,71.6,50.3,69.1,52.7,66.6z"/>
		<path class="st5" d="M81.6,43.6L81.6,43.6L81.6,43.6c-0.3,0.2-0.5,0.3-0.8,0.5l0,0c-1.4,0.8-2.8,1.7-4.1,2.5
			c-5.7,3.6-11,7.7-15.8,12c-0.9,0.8-1.7,1.6-2.5,2.3c-0.6,0.5-1.2,1.1-1.7,1.6c-1.1,1.1-2.2,2.2-3.2,3.3c-0.2,0.3-0.5,0.5-0.7,0.8
			c-2.4,2.5-4.6,5-6.5,7.5c0,0,0,0,0.1,0.1c1.4,1.7,2.8,3.4,4.3,5.1c0.6,0.7,1.2,1.3,1.8,1.9c0.9,1,1.9,2,2.8,3
			c0.7,0.7,1.4,1.4,2.2,2.1c0.9,0.9,1.8,1.8,2.8,2.6c0.8,0.7,1.6,1.4,2.4,2.1c0.9,0.8,1.8,1.6,2.8,2.4c0.8,0.7,1.7,1.3,2.6,2
			s1.9,1.5,2.8,2.2c0.9,0.6,1.8,1.3,2.7,1.9c1,0.7,1.9,1.3,2.9,2c0.9,0.6,1.9,1.2,2.9,1.8c1,0.6,2,1.2,3,1.8c1,0.6,2,1.1,3,1.6
			s2,1.1,3,1.6s2.1,1,3.1,1.5s2,1,3.1,1.4c1.1,0.5,2.2,0.9,3.3,1.3c1,0.4,2.1,0.8,3.1,1.2c1.1,0.4,2.3,0.8,3.4,1.2
			c1.1,0.4,2.1,0.7,3.2,1c1.2,0.4,2.3,0.7,3.5,1c1.1,0.3,2.1,0.6,3.2,0.9c1.2,0.3,2.4,0.6,3.6,0.8c1.1,0.2,2.2,0.5,3.3,0.7
			c1.2,0.2,2.5,0.4,3.7,0.6c1.1,0.2,2.2,0.3,3.3,0.5c1.3,0.2,2.5,0.3,3.8,0.4c1.1,0.1,2.2,0.2,3.3,0.3c1.3,0.1,2.6,0.2,3.9,0.2
			c0.6,0,1.2,0.1,1.7,0.1l0,0C132.2,88.2,110.5,60.3,81.6,43.6z"/>
	</g>
	<g>
		<path class="st6" d="M140.8,184.7C140.8,184.7,140.7,184.7,140.8,184.7c-15.6-1.9-27.6-15.6-27.6-31.7s12-29.7,27.6-31.7l0,0
			c-38.2-1.2-72.2-19.4-94.6-47.3c-17.4,21.7-27.9,49.1-27.9,79s10.4,57.3,27.8,78.9C68.6,204.1,102.5,185.9,140.8,184.7z"/>
	</g>
</g>
</svg>
